<svg width="244" height="22" viewBox="0 0 244 22" fill="none" xmlns="http://www.w3.org/2000/svg">
<g style="mix-blend-mode:difference">
<path d="M14.7427 22L10.7946 16.2224L14.8554 8.46841H14.8475C12.8794 8.46841 11.096 9.54136 10.1918 11.2679L6.13109 19.0245H3.94937L0 13.2469L4.73689 4.19861C6.09309 1.60878 8.76881 0 11.721 0H13.6276C15.4725 0 17.1458 0.929286 18.105 2.485C18.8178 3.64208 19.038 4.98812 18.7549 6.26686C19.7678 6.67714 20.6366 7.40064 21.2302 8.36487C22.1893 9.92058 22.2562 11.8167 21.4084 13.4345L16.9244 22H14.7427ZM13.8372 16.0477L15.6796 18.7436L19.0812 12.2464C19.5044 11.4375 19.4717 10.4901 18.9921 9.7122C18.6868 9.2165 18.2373 8.84892 17.7132 8.64702L13.8372 16.0489V16.0477ZM3.04262 13.0721L4.88496 15.7681L7.86337 10.0785C9.21957 7.48865 11.8953 5.87987 14.8475 5.87987H16.1526C16.3505 5.19391 16.2535 4.45747 15.8682 3.83104C15.3887 3.05318 14.5514 2.58854 13.6302 2.58854H11.7236C9.7555 2.58854 7.97212 3.66149 7.06799 5.38805L3.04524 13.0721H3.04262Z" fill="#F5F3F3"/>
<path d="M61.0926 12.1938H49.9246C50.3597 14.4239 51.9413 15.7259 54.0508 15.7259C55.8198 15.7259 56.936 15.1061 57.5566 13.8984L60.1672 15.2557C58.9582 17.3682 56.6721 18.5759 54.0829 18.5759C49.7409 18.5759 46.6685 15.4766 46.6685 11.0146C46.6685 6.55264 49.707 3.4248 54.0508 3.4248C58.022 3.4248 61.1229 6.6791 61.1229 11.0164C61.1229 11.4813 61.123 11.7289 61.0926 12.1938ZM49.9246 9.71431H57.8972C57.7117 7.85471 56.1282 6.27477 54.0508 6.27477C51.9734 6.27477 50.3597 7.63918 49.9246 9.71431Z" fill="#F5F3F3"/>
<path d="M77.8124 11.0164V18.2678H74.9272L74.6794 16.0359C73.6237 17.6782 71.7942 18.5777 69.9022 18.5777C65.9935 18.5777 62.9229 15.4784 62.9229 11.0164C62.9229 6.55442 66.1486 3.4248 70.3997 3.4248C74.6509 3.4248 77.8142 6.2142 77.8142 11.0164H77.8124ZM74.5867 11.0164C74.5867 8.07202 72.6323 6.33711 70.398 6.33711C68.0406 6.33711 66.1789 8.22699 66.1789 11.0164C66.1789 13.8058 67.9479 15.6654 70.398 15.6654C72.5075 15.6654 74.5867 14.0231 74.5867 11.0164Z" fill="#F5F3F3"/>
<path d="M81.0698 18.2678V9.34382C81.0698 5.7493 83.2417 3.4248 86.7475 3.4248C87.3983 3.4248 87.9262 3.51743 88.4843 3.64211V6.61676C87.9262 6.55442 87.5856 6.58648 87.368 6.58648C85.444 6.58648 84.3277 7.45394 84.3277 9.90134V18.2678H81.0698Z" fill="#F5F3F3"/>
<path d="M43.9673 12.3895V18.2658H40.7094V9.89939C40.7094 8.11994 39.2651 6.67715 37.4837 6.67715C35.7023 6.67715 34.2579 8.11994 34.2579 9.89939V18.2658H31V9.89939C31 6.32269 33.903 3.42285 37.4837 3.42285C41.0643 3.42285 43.9673 6.32269 43.9673 9.89939V12.3895Z" fill="#F5F3F3"/>
</g>
</svg>
