<svg xmlns="http://www.w3.org/2000/svg" width="28" height="22" viewBox="0 0 28 22" fill="none">
  <g clip-path="url(#clip0_45_6275)">
    <rect width="27.5" height="22" rx="3.4375" fill="white"/>
    <path fill-rule="evenodd" clip-rule="evenodd" d="M19.25 -3.05176e-05H27.5V22H19.25V-3.05176e-05Z" fill="#D9071E"/>
    <path fill-rule="evenodd" clip-rule="evenodd" d="M0 0H8.25V22H0V0Z" fill="#006923"/>
    <path fill-rule="evenodd" clip-rule="evenodd" d="M8.25 -3.05176e-05H19.25V22H8.25V-3.05176e-05Z" fill="white"/>
    <path fill-rule="evenodd" clip-rule="evenodd" d="M12.3614 7.25385C12.3614 7.25385 11.7711 7.74212 11.8815 8.26267C11.9919 8.78323 13.1551 8.26267 13.0145 7.75826C12.8738 7.25385 12.3614 7.25385 12.3614 7.25385Z" fill="#FCCA3D"/>
    <path d="M12.045 7.2843C11.9661 7.42443 11.9031 7.54621 11.8565 7.64661C12.0109 7.69526 12.1633 7.7676 12.2872 7.85461C12.6884 8.13642 12.8363 8.63869 12.4063 9.01086C12.3231 9.0829 12.1879 9.32872 12.1133 9.56458C12.3185 9.57679 12.4655 9.60917 12.6006 9.69446C12.9804 9.93411 12.9445 10.3716 12.6553 10.7091C12.4505 10.9482 12.1767 11.1419 11.919 11.2413C11.49 11.4067 11.0303 11.3438 11.0303 10.7579C11.0303 10.7351 11.0161 10.6896 11.2198 10.6847C10.8929 10.6798 10.8231 10.4948 10.7823 10.1661C10.772 10.0829 10.7675 10.0032 10.7618 9.83215C10.7581 9.72167 10.7578 9.72117 10.753 9.61243C10.747 9.49408 10.7248 9.40941 10.963 9.4093H10.4649V8.49329H10.963C11.2457 8.49329 11.4027 8.59524 11.4922 8.80579C11.5421 8.71032 11.5963 8.61977 11.6534 8.53918C11.5815 8.51265 11.5082 8.49622 11.46 8.49622C11.0185 8.49615 10.8345 8.10286 10.9258 7.68567C10.9747 7.46274 11.1019 7.17998 11.3087 6.81262L12.045 7.2843ZM11.2198 10.6847C11.2314 10.6844 11.2438 10.6837 11.2569 10.6837C11.2526 10.6837 11.2484 10.6838 11.2442 10.6837L11.2198 10.6847ZM12.0079 10.1056L12.0167 10.0968C12.0179 10.0945 12.0193 10.0925 12.0206 10.0909C12.0164 10.0958 12.0122 10.1008 12.0079 10.1056ZM11.6319 10.0323C11.6325 10.0368 11.6333 10.0415 11.6339 10.046C11.6322 10.0326 11.6304 10.0166 11.629 9.99719L11.6319 10.0323Z" fill="#A8AC71"/>
    <path fill-rule="evenodd" clip-rule="evenodd" d="M16.5571 11.3692C16.5571 11.3692 17.352 8.85635 16.0884 7.55556C14.8248 6.25478 13.3647 6.34182 13.3647 6.34182C13.3647 6.34182 12.9442 6.67507 13.3647 6.92922C13.7852 7.18338 13.609 7.42707 13.609 7.42707C13.609 7.42707 12.9048 6.66436 12.4373 7.10996C11.9698 7.55556 12.8737 7.48775 12.778 7.82326C12.6823 8.15878 12.277 9.64842 12.8693 10.4005C13.4616 11.1526 12.3092 10.9894 12.5436 10.9894C12.778 10.9894 13.609 11.1644 13.609 10.9894C13.609 10.8143 13.8979 11.67 14.1451 11.67C14.3923 11.67 14.5832 11.3692 14.5832 11.3692C14.5832 11.3692 14.9297 11.67 15.1409 11.67C15.3521 11.67 16.0884 11.4732 16.0884 11.4732L14.6967 10.2224C14.6967 10.2224 14.7806 9.67064 14.5832 9.55123C14.3857 9.43182 16.1659 10.6095 16.3054 10.9894C16.4448 11.3692 16.5571 11.3692 16.5571 11.3692Z" fill="#8F4620"/>
    <path d="M9.51025 10.7494C9.51025 10.7494 9.63929 10.3107 9.77744 10.2803C9.89712 10.2539 10.1488 10.4905 10.1488 10.4905C10.5959 13.1395 11.6769 14.1742 13.4707 14.1742C15.2855 14.1742 16.3854 13.388 17.0273 10.9448C17.0273 10.9448 17.3685 10.5731 17.4889 10.6144C17.62 10.6594 17.7843 11.1512 17.7843 11.1512C17.0479 13.954 15.6566 15.2019 13.4707 15.2019C11.2636 15.2019 10.0236 13.7911 9.51025 10.7494Z" fill="#9FAB2F"/>
    <path fill-rule="evenodd" clip-rule="evenodd" d="M11.4591 12.5184C11.4591 12.5184 14.041 13.1026 15.0601 13.1026C16.0791 13.1026 14.1659 13.9898 13.4194 13.9898C12.6729 13.9898 11.4591 12.5184 11.4591 12.5184Z" fill="#2FC2DC"/>
    <rect x="12.6042" y="12.925" width="1.71875" height="0.982143" rx="0.179036" fill="#F9AA51"/>
    <path d="M10.4634 11.1245L11.1669 10.598C12.0825 11.9901 13.4517 12.448 15.3668 11.97L15.5626 12.8626C13.3239 13.4214 11.5934 12.8426 10.4634 11.1245Z" fill="#259485"/>
    <path fill-rule="evenodd" clip-rule="evenodd" d="M14.2582 11.321C14.2582 11.321 13.2152 11.9066 13.5629 11.9066C13.9105 11.9066 15.2712 12.1994 15.0064 11.9066C14.7417 11.6138 14.2582 11.321 14.2582 11.321Z" fill="#FCCA3D"/>
    <path fill-rule="evenodd" clip-rule="evenodd" d="M13.025 10.6225C13.025 10.6225 12.8269 10.012 12.4145 10.012C12.0021 10.012 12.1185 10.5128 11.9201 10.5128C11.7218 10.5128 12.1049 10.8653 12.2757 10.8653C12.4464 10.8653 13.025 10.6225 13.025 10.6225Z" fill="#FCCA3D"/>
  </g>
  <defs>
    <clipPath id="clip0_45_6275">
      <rect width="27.5" height="22" rx="3.4375" fill="white"/>
    </clipPath>
  </defs>
</svg>