<svg xmlns="http://www.w3.org/2000/svg" width="28" height="22" viewBox="0 0 28 22" fill="none">
  <g clip-path="url(#clip0_45_8021)">
    <rect width="27.5" height="22" rx="3.4375" fill="white"/>
    <path fill-rule="evenodd" clip-rule="evenodd" d="M1.52588e-05 0H27.5V22H1.52588e-05V0Z" fill="#E31D1C"/>
    <path d="M27.5 20.1663V22.0002H1.52588e-05V20.1663H27.5ZM27.5 18.3333H1.52588e-05V16.5002H27.5V18.3333ZM27.5 14.6663H1.52588e-05V12.8333H27.5V14.6663ZM27.5 11.0002H1.52588e-05V9.16626H27.5V11.0002ZM27.5 7.33325H1.52588e-05V5.50024H27.5V7.33325ZM27.5 3.66626H1.52588e-05V1.83325H27.5V3.66626Z" fill="#F7FCFF"/>
    <rect x="1.52588e-05" width="15.4688" height="12.8333" fill="#2E42A5"/>
    <path d="M-2.42811 9.85028H-1.7035L-2.27283 10.4294L-2.05213 11.3434L-2.76112 10.8298L-3.49354 11.3434L-3.24647 10.4294L-3.89686 9.85028H-3.04725L-2.76209 9.10419L-2.42811 9.85028ZM1.609 9.85028H2.33361L1.76427 10.4294L1.98498 11.3434L1.27599 10.8298L0.543571 11.3434L0.790642 10.4294L0.140251 9.85028H0.989861L1.27502 9.10419L1.609 9.85028ZM5.64513 9.85028H6.36974L5.80041 10.4294L6.02111 11.3434L5.31213 10.8298L4.5797 11.3434L4.82677 10.4294L4.17638 9.85028H5.02599L5.31115 9.10419L5.64513 9.85028ZM9.68224 9.85028H10.4069L9.83752 10.4294L10.0582 11.3434L9.34924 10.8298L8.61681 11.3434L8.86388 10.4294L8.21349 9.85028H9.0631L9.34826 9.10419L9.68224 9.85028ZM13.7194 9.85028H14.444L13.8746 10.4294L14.0953 11.3434L13.3863 10.8298L12.6539 11.3434L12.901 10.4294L12.2506 9.85028H13.1002L13.3854 9.10419L13.7194 9.85028ZM-0.409554 7.83173H0.315056L-0.25428 8.41083L-0.033577 9.32489L-0.742561 8.81122L-1.47498 9.32489L-1.22791 8.41083L-1.8783 7.83173H-1.02869L-0.743538 7.08661L-0.409554 7.83173ZM3.62756 7.83173H4.35217L3.78283 8.41083L4.00256 9.32489L3.29455 8.81122L2.56115 9.32489L2.8092 8.41083L2.15783 7.83173H3.00842L3.29259 7.08661L3.62756 7.83173ZM7.66369 7.83173H8.3883L7.81896 8.41083L8.03967 9.32489L7.33068 8.81122L6.59826 9.32489L6.84533 8.41083L6.19494 7.83173H7.04455L7.3297 7.08661L7.66369 7.83173ZM11.7008 7.83173H12.4254L11.8561 8.41083L12.0768 9.32489L11.3678 8.81122L10.6354 9.32489L10.8824 8.41083L10.232 7.83173H11.0817L11.3668 7.08661L11.7008 7.83173ZM-2.42811 5.81317H-1.7035L-2.27283 6.39227L-2.05213 7.30634L-2.76112 6.79266L-3.49354 7.30634L-3.24647 6.39227L-3.89686 5.81317H-3.04725L-2.76209 5.06805L-2.42811 5.81317ZM1.609 5.81317H2.33361L1.76427 6.39227L1.98498 7.30634L1.27599 6.79266L0.543571 7.30634L0.790642 6.39227L0.140251 5.81317H0.989861L1.27502 5.06805L1.609 5.81317ZM5.64513 5.81317H6.36974L5.80041 6.39227L6.02111 7.30634L5.31213 6.79266L4.5797 7.30634L4.82677 6.39227L4.17638 5.81317H5.02599L5.31115 5.06805L5.64513 5.81317ZM9.68224 5.81317H10.4069L9.83752 6.39227L10.0582 7.30634L9.34924 6.79266L8.61681 7.30634L8.86388 6.39227L8.21349 5.81317H9.0631L9.34826 5.06805L9.68224 5.81317ZM13.7194 5.81317H14.444L13.8746 6.39227L14.0953 7.30634L13.3863 6.79266L12.6539 7.30634L12.901 6.39227L12.2506 5.81317H13.1002L13.3854 5.06805L13.7194 5.81317ZM-0.409554 3.79559H0.315056L-0.25428 4.37469L-0.033577 5.28876L-0.742561 4.77509L-1.47498 5.28876L-1.22791 4.37469L-1.8783 3.79559H-1.02869L-0.743538 3.0495L-0.409554 3.79559ZM3.62756 3.79559H4.35217L3.78283 4.37469L4.00256 5.28876L3.29455 4.77509L2.56115 5.28876L2.8092 4.37469L2.15783 3.79559H3.00842L3.29259 3.0495L3.62756 3.79559ZM7.66369 3.79559H8.3883L7.81896 4.37469L8.03967 5.28876L7.33068 4.77509L6.59826 5.28876L6.84533 4.37469L6.19494 3.79559H7.04455L7.3297 3.0495L7.66369 3.79559ZM11.7008 3.79559H12.4254L11.8561 4.37469L12.0768 5.28876L11.3678 4.77509L10.6354 5.28876L10.8824 4.37469L10.232 3.79559H11.0817L11.3668 3.0495L11.7008 3.79559ZM-2.42811 1.77704H-1.7035L-2.27283 2.35614L-2.05213 3.2702L-2.76112 2.75653L-3.49354 3.2702L-3.24647 2.35614L-3.89686 1.77704H-3.04725L-2.76209 1.03094L-2.42811 1.77704ZM1.609 1.77704H2.33361L1.76427 2.35614L1.98498 3.2702L1.27599 2.75653L0.543571 3.2702L0.790642 2.35614L0.140251 1.77704H0.989861L1.27502 1.03094L1.609 1.77704ZM5.64513 1.77704H6.36974L5.80041 2.35614L6.02111 3.2702L5.31213 2.75653L4.5797 3.2702L4.82677 2.35614L4.17638 1.77704H5.02599L5.31115 1.03094L5.64513 1.77704ZM9.68224 1.77704H10.4069L9.83752 2.35614L10.0582 3.2702L9.34924 2.75653L8.61681 3.2702L8.86388 2.35614L8.21349 1.77704H9.0631L9.34826 1.03094L9.68224 1.77704ZM13.7194 1.77704H14.444L13.8746 2.35614L14.0953 3.2702L13.3863 2.75653L12.6539 3.2702L12.901 2.35614L12.2506 1.77704H13.1002L13.3854 1.03094L13.7194 1.77704Z" fill="#F7FCFF"/>
  </g>
  <defs>
    <clipPath id="clip0_45_8021">
      <rect width="27.5" height="22" rx="3.4375" fill="white"/>
    </clipPath>
  </defs>
</svg>